<?xml version="1.0" encoding="utf-8"?>
<!-- Generator: Adobe Illustrator 27.5.0, SVG Export Plug-In . SVG Version: 6.00 Build 0)  -->
<svg version="1.1" id="Laag_1" xmlns="http://www.w3.org/2000/svg" xmlns:xlink="http://www.w3.org/1999/xlink" x="0px" y="0px"
	 viewBox="0 0 435.7 204.1" style="enable-background:new 0 0 435.7 204.1;" xml:space="preserve">
<g>
	<path d="M147.7,159.2h12l8.8,22.6l8.8-22.6h12l-14.8,32.2h-12L147.7,159.2z"/>
	<path d="M197.7,147.8h10.6v43.6h-10.6V147.8z"/>
	<path d="M220.9,147.8h10.6v7.4h-10.6V147.8z M220.9,159.2h10.6v32.2h-10.6V159.2z"/>
	<path d="M283.7,181.8c-3.1,7.6-10.4,10.8-20,10.8c-12.7,0-21.2-5.2-21.2-17.3c0-12.1,8.5-17.3,21.2-17.3c13.9,0,20.6,7,20.6,19.1v1
		h-31v0.1c0,3.1,3.1,7.7,10.3,7.7c4.3,0,7.3-1.4,8.8-4.2H283.7z M273.4,171.9v-0.1c0-1.7-2.2-7.1-10-7.1c-8.3,0-10.1,6.4-10.1,7.1
		v0.1H273.4z"/>
	<path d="M325.2,159.2h10.2v29.6c0,11.1-7.2,15.4-20.6,15.4c-7.9,0-18.7-0.9-19.7-10.6h11.3c0.7,2.6,2.7,4,8.8,4
		c5.2,0,9.7-1.4,9.7-9.2v-2.6c-3,3.4-7.5,4.7-12.8,4.7c-12.6,0-18.3-7.8-18.3-16.1c0-8.8,5.7-16.1,19.1-16.1c4.7,0,9.5,1.3,12.2,4.7
		h0.1V159.2z M314.7,183.4c4.7,0,10.1-1.4,10.1-8.8c0-7.4-5.5-8.8-10.1-8.8c-4.6,0-10.1,1.4-10.1,8.8
		C304.6,182,310.1,183.4,314.7,183.4z"/>
	<path d="M386.9,181.8c-3.1,7.6-10.4,10.8-20,10.8c-12.7,0-21.2-5.2-21.2-17.3c0-12.1,8.5-17.3,21.2-17.3c13.9,0,20.6,7,20.6,19.1v1
		h-31v0.1c0,3.1,3.1,7.7,10.3,7.7c4.3,0,7.3-1.4,8.8-4.2H386.9z M376.6,171.9v-0.1c0-1.7-2.2-7.1-10-7.1c-8.3,0-10.1,6.4-10.1,7.1
		v0.1H376.6z"/>
	<path d="M425.1,173.1c0-4.4-2.3-6.6-7.1-6.6c-4.9,0-9.1,2.5-9.1,9.3v15.5h-10.6v-32.2h10.2v4.7h0.1c1.9-2.7,7-5.5,13.1-5.5
		c5.5,0,13.8,2.1,13.8,11.6v21.4h-10.6V173.1z"/>
</g>
<g>
	<path d="M155.3,122.6h3.3l8.1,11.8h0v-11.8h3v16h-3.3l-8.1-11.8h-0.1v11.8h-3V122.6z"/>
	<path d="M173.3,135.6h3.5v3h-3.5V135.6z"/>
	<path d="M178.3,122.6h3.2l4.5,12.7h0l4.6-12.7h3.2l-6.1,16h-3.5L178.3,122.6z"/>
	<path d="M192.2,135.6h3.5v3h-3.5V135.6z"/>
</g>
<path style="fill:#009FE3;stroke:#009FE3;" d="M217.3,97.4c-0.8,2.1-12.6,18.7-11.9,29.2c0.5,6.9,2,8.8,14.5,18.8
	c0,0,2.2-4.2,10.8-10.8c8.7-6.7,9.5-17.2,4.2-24.3c-5.3-7.2-11.7-10.1-11-17.2c0.3-3.3,0.1-2.7,0.1-2.7l-6.7,0.2
	C217.4,90.5,217.8,96,217.3,97.4z"/>
<path style="fill:none;stroke:#E63329;stroke-width:3;" d="M220.7,90.2c0,0,0.5,7.9-2.7,16.9c-3.2,9-3.2,13.5,0.2,16.3
	c2.5,2,5.5,2,10,2.2c4,0.2,6.9,0,9.1-0.2"/>
<path style="fill:#009FE3;stroke:#009FE3;stroke-linecap:square;" d="M133.5,43.7l56.8,0.1c0,0-11.3-10.1-18.7-11.3
	c0,0,5.2-4.3,3.6-10.8c0,0,12.4-11.2,13.7-12.4c1.3-1.2,4-3.9,1.3-7.3c-2.6-3.5-6.5-0.3-7.2,0.4c-0.8,0.8-13,10.8-13,10.8
	s-7.3-5.7-16.2-0.3c-0.5,0.3-10.9-8.9-12.5-10.4c-1.4-1.2-5.3-3.2-7.8-0.1c-2.4,2.9,0.2,6.4,1.5,7.4c1.3,1,13.7,11.3,13.6,11.8
	c-0.1,0.5-1.1,6.3,3.2,10.8C151.8,32.5,135.6,38.8,133.5,43.7z"/>
<path style="fill:#E63329;stroke:#D60F3E;" d="M10,43.8h35.3c0,0,10.8-0.6,13.1,8s26.2,61,26.2,61l24.5-58.1c0,0,3.4-10.8,18.2-10.8
	c14.8,0,103.1,0.2,103.1,0.2s8.7-0.7,14.3,8.9c6.1,10.5,8.4,13.3,14.4,27c0.3,0.8,6.7,12.3-1.9,10.6c-8.5-1.7-51.8,0-54.1,0
	c0,0-2.5,0.3-1.2-5.6c1.3-6,3.9-12.1,4.5-14c0.6-1.9,0.3-2.1-2.8-2.3c-2.8-0.2-7.7-1-11.9,4c-5,5.9-4.5,13.4-13.5,17.7
	c-6.2,3-12.7,2.3-15.9,2.2c-3.2-0.1-8.9,1.2-12.1,8.7c-3.2,7.6-25,61.3-27.6,65.2c-6.4,9.4-2.7,24.4-37.5,22.8
	c-27.9-1.3-28.3,0.4-38.7-23.8C36.1,141.2,4.7,64.2,3.5,59.7s-4.1-9.5-2.4-13C2.6,43.3,10,43.8,10,43.8z"/>
</svg>
