<svg xmlns="http://www.w3.org/2000/svg" version="1.0" viewBox="0 0 202.51 57.73">
    <path d="M0 0h6.254v-2.71H9.52v-3.878H6.254v-3.693c0-1.163.589-1.629 2.247-1.629h.914v-3.691h-6.36c-1.147 0-3.055 0-3.055 3.398V0z"
          transform="matrix(1.25 0 0 -1.25 124.357 19.153)" fill="currentColor"/>
    <path d="M0 0h6.463v-1.192s-.062-.501.597.229C8.11.198 9.601.231 9.974.231h.645v-4.658h-1.7c-.282 0-1.073.003-1.566-.364-.378-.281-1.029-.737-1.029-2.274v-5.687H0V0z"
          transform="matrix(1.25 0 0 -1.25 107.679 22.715)" fill="currentColor"/>
    <path d="m0 0 3.689-6.302-3.792-6.45h7.968l3.254 5.042 3.074-5.042h8.096l-3.817 6.45L22.315 0h-8.096l-3.1-4.843L8.07 0H0z"
          transform="matrix(1.25 0 0 -1.25 25.749 22.715)" fill="currentColor"/>
    <path d="M0 0c2.1 0 1.816-2.081 1.816-2.596h-3.663C-1.847-1.763-1.994 0 0 0m8.298-5.079s.124 2.186-.235 3.466C7.704-.333 7.111.666 6.137 1.209c-.973.542-2.809.88-6.012.88 0 0-2.761.083-4.944-.379C-6.753 1.3-7.637.169-7.868-.138c-.23-.307-.973-1.689-1.024-3.43-.052-1.741 0-1.92.101-2.97.103-1.049.477-2.52 1.476-3.418 1.015-.911 1.446-1.445 7.057-1.445 3.411 0 4.9.284 5.635.547.474.169.875.354 1.03.436.203.108.621.394.965.874.234.312.46.738.646 1.32-.001.001.174.635.208 1.247.023.425.026.439.026.439H1.816s.138-1.769-.589-2.329C.703-9.271.408-9.277.1-9.277c-.307 0-.961-.05-1.343.425-.369.459-.604.881-.604 1.982v1.791H8.298z"
          transform="matrix(1.25 0 0 -1.25 92.556 24.852)" fill="currentColor"/>
    <path d="M0 0c2.1 0 1.817-2.081 1.817-2.596h-3.664C-1.847-1.763-1.994 0 0 0m8.299-5.079s.123 2.186-.236 3.466C7.705-.333 7.111.666 6.137 1.209c-.973.542-2.809.88-6.011.88 0 0-2.762.083-4.945-.379C-6.752 1.3-7.637.169-7.867-.138c-.231-.307-.974-1.689-1.025-3.43-.051-1.741 0-1.92.102-2.97.103-1.049.476-2.52 1.475-3.418 1.015-.911 1.446-1.445 7.057-1.445 3.412 0 4.901.284 5.635.547.474.169.875.354 1.03.436.203.108.621.394.965.874.234.312.461.738.647 1.32-.003.001.173.635.207 1.247.023.425.027.439.027.439H1.817s.137-1.769-.59-2.329c-.524-.404-.82-.41-1.127-.41-.308 0-.961-.05-1.342.425-.37.459-.605.881-.605 1.982v1.791H8.299z"
          transform="matrix(1.25 0 0 -1.25 13.14 24.852)"
          fill="currentColor"/>
    <path d="M67.288 35.006c-2.304 0-2.143-2.472-2.143-3.245v-2.546c0-1.041-.075-3.245 2.166-3.245 2.157 0 2.154 2.022 2.124 2.941h.003v2.85c0 1.041.172 3.245-2.15 3.245m10.562-4.554c0-7.942-3.727-8.275-6.721-8.275-1.249 0-3.933-.082-5.158 1.504-.907 1.176-.855.16-.855.16v-1.126h-8.208v20.491h8.208v-5.191c0-.895.28-.715.44-.555.16.16.477.472.8.684.428.278 1.057.96 4.067.96 5.047 0 7.427-2.115 7.427-8.652"
          fill="currentColor"/>
    <path d="M0 0c0 11.87 9.623 21.492 21.49 21.492 11.873 0 21.493-9.622 21.493-21.492 0-11.87-9.62-21.493-21.493-21.493C9.623-21.493 0-11.87 0 0"
          style="fill:#fff;fill-opacity:1;fill-rule:nonzero;stroke:none"
          transform="matrix(1.25 0 0 -1.25 146.785 28.865)"/>
    <path d="m0 0-1.024 1.893H9.66L10.683 0H0zm1.468-2.712L.444-.82h10.682l1.025-1.892H1.468zM13.63-5.439H2.944L1.91-3.532h10.684l1.036-1.907z"
          style="fill:#e95e0f;fill-opacity:1;fill-rule:nonzero;stroke:none"
          transform="matrix(1.25 0 0 -1.25 176.902 31.851)"/>
    <path d="m0 0 1.026 1.893H-9.661L-10.685 0H0zm-1.467-2.712L-.445-.82h-10.683l-1.024-1.892h10.685zm-12.162-2.727h10.684l1.033 1.907h-10.686l-1.031-1.907z"
          style="fill:#e95e0f;fill-opacity:1;fill-rule:nonzero;stroke:none"
          transform="matrix(1.25 0 0 -1.25 170.58 31.851)"/>
    <path d="m0 0 1.023-1.894H-9.662L-10.686 0H0zm-1.469 2.711L-.444.819H-11.13l-1.023 1.892h10.684zm-12.16 2.729h10.683l1.033-1.909h-10.685l-1.031 1.909z"
          style="fill:#e95e0f;fill-opacity:1;fill-rule:nonzero;stroke:none"
          transform="matrix(1.25 0 0 -1.25 170.398 25.987)"/>
    <path d="m0 0-1.022-1.894H9.662L10.686 0H0zm1.47 2.711L.444.819H11.13l1.023 1.892H1.47zM13.63 5.44H2.946L1.913 3.531h10.685L13.63 5.44z"
          style="fill:#e95e0f;fill-opacity:1;fill-rule:nonzero;stroke:none"
          transform="matrix(1.25 0 0 -1.25 176.716 25.987)"/>
    <path d="m0 0 1.628 2.785L3.251 0H0zm-1.605-2.751 1.127 1.93H3.73l1.124-1.93h-6.459zm-1.583-2.708 1.208 2.067h7.207l1.204-2.067h-9.619z"
          style="fill:#e95e0f;fill-opacity:1;fill-rule:nonzero;stroke:none"
          transform="matrix(1.25 0 0 -1.25 171.528 11.553)"/>
    <path d="m0 0-1.628-2.785L-3.252 0H0zm1.605 2.751L.478.821H-3.73l-1.123 1.93h6.458zm1.584 2.707-1.21-2.066h-7.205L-6.43 5.458h9.619z"
          style="fill:#e95e0f;fill-opacity:1;fill-rule:nonzero;stroke:none"
          transform="matrix(1.25 0 0 -1.25 175.58 46.177)"/>
    <path d="M0 0h.649a19.05 19.05 0 0 0 5.595 13.511 19.048 19.048 0 0 0 13.511 5.597 19.056 19.056 0 0 0 13.513-5.597A19.046 19.046 0 0 0 38.863 0a19.046 19.046 0 0 0-5.595-13.511 19.05 19.05 0 0 0-13.513-5.595 19.042 19.042 0 0 0-13.511 5.595A19.05 19.05 0 0 0 .649 0h-1.3c.002-11.271 9.136-20.407 20.406-20.407 11.273 0 20.409 9.136 20.409 20.407 0 11.27-9.136 20.408-20.409 20.408C8.485 20.408-.649 11.27-.651 0H0z"
          style="fill:#e95e0f;fill-opacity:1;fill-rule:nonzero;stroke:none"
          transform="matrix(1.25 0 0 -1.25 148.954 28.865)"/>
</svg>