<svg version="1.1" id="Laag_1" xmlns="http://www.w3.org/2000/svg" xmlns:xlink="http://www.w3.org/1999/xlink" x="0px" y="0px"
	 viewBox="0 0 528.28 116.96" style="enable-background:new 0 0 528.28 116.96;" xml:space="preserve">
<style type="text/css">
	.st0{fill:#E62251;}
	.st2{fill:currentColor;}
</style>
<g>
	<polygon class="st0" points="0,38.37 19.69,27.69 19.75,49.85 	"/>
	<polygon class="st2" points="45.11,39.6 65.64,27.75 65.71,51.32 45.18,63.17 	"/>
	<polygon class="st0" points="66.9,24.1 43.85,37.41 23.47,25.57 67.75,0 111.04,25.16 89.81,37.41 	"/>
	<polygon class="st2" points="91.21,89.59 68.16,103.71 68.09,79.4 91.15,66.09 91.07,39.6 112.3,27.34 112.38,53.83 135.43,40.52 
		135.5,64.09 112.45,77.4 112.52,103.9 91.29,116.15 	"/>
	<polygon class="st0" points="46.44,65.36 66.97,53.51 87.36,65.36 66.83,77.21 	"/>
	<polygon class="st0" points="114.83,27.34 134.15,38.34 114.89,49.46 	"/>
	<polygon class="st2" points="45.27,94.85 64.38,105.96 45.33,116.96 	"/>
	<g>
		<path class="st0" d="M158.38,10.08h17.68c2.34,0,4.45,0.32,6.34,0.94s3.5,1.54,4.84,2.73c1.34,1.19,2.38,2.69,3.12,4.49
			c0.74,1.8,1.11,3.87,1.11,6.21c0,2.21-0.38,4.21-1.14,6.01c-0.76,1.8-1.8,3.34-3.12,4.62c-1.32,1.28-2.9,2.25-4.75,2.92
			c-1.84,0.67-3.87,1.01-6.08,1.01h-6.76v14.43h-11.25V10.08z M175.09,29.97c1.56,0,2.79-0.5,3.71-1.5c0.91-1,1.37-2.28,1.37-3.83
			c0-1.65-0.43-2.97-1.3-3.96c-0.87-1-2.14-1.5-3.83-1.5h-5.39v10.79H175.09z"/>
		<path class="st0" d="M194.76,10.08h11.5V43.3h20.08v10.14h-31.59V10.08z"/>
		<path class="st0" d="M228.66,10.08h11.5V35.5c0,2.38,0.55,4.33,1.66,5.85c1.11,1.52,2.94,2.27,5.49,2.27s4.38-0.77,5.46-2.31
			s1.62-3.48,1.62-5.82V10.08h11.64v26.46c0,2.77-0.46,5.28-1.37,7.51c-0.91,2.23-2.2,4.13-3.87,5.69
			c-1.67,1.56-3.64,2.75-5.92,3.58c-2.28,0.82-4.78,1.24-7.51,1.24c-2.73,0-5.24-0.41-7.54-1.24c-2.3-0.82-4.28-2-5.95-3.54
			c-1.67-1.54-2.96-3.42-3.87-5.65c-0.91-2.23-1.36-4.76-1.36-7.57V10.08z"/>
		<path class="st0" d="M275.09,39.72c1.21,1.21,2.8,2.32,4.75,3.31c1.95,1,4.1,1.5,6.44,1.5c0.56,0,1.15-0.05,1.75-0.16
			c0.61-0.11,1.15-0.29,1.62-0.55c0.48-0.26,0.87-0.61,1.17-1.04c0.3-0.43,0.46-1,0.46-1.69c0-1.13-0.58-2.06-1.72-2.79
			c-1.15-0.74-2.83-1.47-5.04-2.21l-2.41-0.78c-1.34-0.43-2.7-1-4.06-1.69c-1.37-0.69-2.59-1.53-3.67-2.5
			c-1.08-0.98-1.96-2.12-2.63-3.45c-0.67-1.32-1.01-2.87-1.01-4.65c0-1.99,0.37-3.85,1.1-5.56c0.74-1.71,1.81-3.21,3.22-4.49
			c1.41-1.28,3.15-2.27,5.23-2.99c2.08-0.72,4.49-1.07,7.21-1.07c2.12,0,4.05,0.2,5.79,0.58c1.73,0.39,3.25,0.87,4.55,1.43
			c1.3,0.56,2.41,1.17,3.32,1.82c0.91,0.65,1.6,1.24,2.08,1.76l-5.85,7.41c-1.52-1.13-3.1-2.05-4.75-2.76
			c-1.65-0.72-3.34-1.07-5.07-1.07c-0.56,0-1.13,0.07-1.69,0.2s-1.07,0.33-1.53,0.58s-0.82,0.6-1.1,1.01
			c-0.28,0.41-0.42,0.92-0.42,1.53c0,0.65,0.16,1.21,0.49,1.69c0.33,0.48,0.77,0.89,1.33,1.24c0.56,0.35,1.25,0.66,2.05,0.94
			c0.8,0.28,1.66,0.58,2.57,0.88l2.08,0.65c1.47,0.48,2.97,1.03,4.49,1.66c1.52,0.63,2.88,1.47,4.09,2.54
			c1.21,1.06,2.21,2.38,2.99,3.96s1.17,3.52,1.17,5.82c0,1.99-0.47,3.83-1.4,5.52c-0.93,1.69-2.19,3.14-3.77,4.36
			c-1.58,1.21-3.45,2.16-5.59,2.83c-2.15,0.67-4.43,1.01-6.86,1.01c-4.33,0-7.96-0.58-10.89-1.72c-2.93-1.15-5.41-2.7-7.44-4.65
			L275.09,39.72z"/>
		<path class="st2" d="M198.49,98.38c-4.9,6.11-11.33,9.17-19.3,9.17c-3.34,0-6.39-0.56-9.17-1.69c-2.77-1.13-5.15-2.69-7.12-4.68
			c-1.97-1.99-3.51-4.38-4.62-7.15c-1.1-2.77-1.66-5.83-1.66-9.17c0-3.29,0.54-6.34,1.62-9.13c1.08-2.79,2.62-5.22,4.62-7.28
			c1.99-2.06,4.38-3.66,7.15-4.81c2.77-1.15,5.83-1.72,9.17-1.72c3.77,0,7.26,0.63,10.46,1.89s5.92,3.44,8.12,6.56l-7.6,7.67
			c-1.21-1.65-2.67-2.97-4.36-3.96c-1.69-1-3.62-1.5-5.79-1.5c-1.82,0-3.44,0.3-4.88,0.91c-1.43,0.61-2.63,1.45-3.61,2.54
			c-0.97,1.08-1.72,2.35-2.24,3.8c-0.52,1.45-0.78,3.02-0.78,4.71c0,1.73,0.27,3.34,0.81,4.81c0.54,1.47,1.31,2.75,2.31,3.83
			c1,1.08,2.2,1.93,3.61,2.54c1.41,0.61,2.98,0.91,4.71,0.91c2.51,0,4.56-0.44,6.14-1.33c1.58-0.89,3.13-2.29,4.65-4.19
			L198.49,98.38z"/>
		<path class="st2" d="M220.82,107.48c-3.25,0-6.25-0.58-9-1.72c-2.75-1.15-5.13-2.73-7.15-4.75c-2.01-2.01-3.59-4.42-4.71-7.21
			c-1.13-2.79-1.69-5.84-1.69-9.13c0-3.29,0.56-6.34,1.69-9.13c1.13-2.79,2.7-5.2,4.71-7.21c2.02-2.02,4.4-3.59,7.15-4.71
			c2.75-1.13,5.75-1.69,9-1.69s6.26,0.56,9.03,1.69c2.77,1.13,5.16,2.7,7.15,4.71c1.99,2.01,3.55,4.42,4.68,7.21
			s1.69,5.84,1.69,9.13c0,3.29-0.56,6.34-1.69,9.13s-2.69,5.2-4.68,7.21c-1.99,2.02-4.38,3.6-7.15,4.75S224.07,107.48,220.82,107.48
			z M220.82,96.69c1.69,0,3.19-0.31,4.52-0.94c1.32-0.63,2.44-1.48,3.35-2.57c0.91-1.08,1.6-2.36,2.08-3.83
			c0.48-1.47,0.71-3.03,0.71-4.68c0-1.65-0.24-3.21-0.71-4.68c-0.48-1.47-1.17-2.75-2.08-3.83c-0.91-1.08-2.03-1.94-3.35-2.57
			c-1.32-0.63-2.83-0.94-4.52-0.94c-1.69,0-3.2,0.31-4.52,0.94c-1.32,0.63-2.44,1.48-3.35,2.57c-0.91,1.08-1.6,2.36-2.08,3.83
			c-0.48,1.47-0.71,3.03-0.71,4.68c0,1.65,0.24,3.21,0.71,4.68c0.48,1.47,1.17,2.75,2.08,3.83s2.03,1.94,3.35,2.57
			C217.62,96.37,219.13,96.69,220.82,96.69z"/>
		<path class="st2" d="M247.95,63.08h10.46l16.64,24.18V63.08h11.38v43.36h-9.81l-17.29-24.89v24.89h-11.38V63.08z"/>
		<path class="st2" d="M296.13,92.72c1.21,1.21,2.79,2.32,4.75,3.31c1.95,1,4.09,1.5,6.43,1.5c0.56,0,1.15-0.05,1.75-0.16
			c0.61-0.11,1.15-0.29,1.62-0.55s0.87-0.61,1.17-1.04c0.3-0.43,0.46-1,0.46-1.69c0-1.13-0.57-2.06-1.72-2.79
			c-1.15-0.74-2.83-1.47-5.04-2.21l-2.41-0.78c-1.34-0.43-2.7-1-4.06-1.69c-1.36-0.69-2.59-1.53-3.67-2.5
			c-1.08-0.98-1.96-2.12-2.63-3.45c-0.67-1.32-1.01-2.87-1.01-4.65c0-1.99,0.37-3.85,1.11-5.56c0.74-1.71,1.81-3.21,3.22-4.49
			c1.41-1.28,3.15-2.27,5.23-2.99c2.08-0.72,4.48-1.07,7.21-1.07c2.12,0,4.05,0.2,5.79,0.58c1.73,0.39,3.25,0.87,4.55,1.43
			c1.3,0.56,2.41,1.17,3.32,1.82c0.91,0.65,1.6,1.24,2.08,1.76l-5.85,7.41c-1.52-1.13-3.1-2.05-4.75-2.76
			c-1.65-0.72-3.34-1.07-5.07-1.07c-0.56,0-1.13,0.07-1.69,0.2c-0.56,0.13-1.07,0.33-1.53,0.58s-0.82,0.6-1.11,1.01
			c-0.28,0.41-0.42,0.92-0.42,1.53c0,0.65,0.16,1.21,0.49,1.69c0.33,0.48,0.77,0.89,1.33,1.24c0.56,0.35,1.25,0.66,2.05,0.94
			c0.8,0.28,1.66,0.58,2.57,0.88l2.08,0.65c1.47,0.48,2.97,1.03,4.49,1.66c1.52,0.63,2.88,1.47,4.09,2.54
			c1.21,1.06,2.21,2.38,2.99,3.96c0.78,1.58,1.17,3.52,1.17,5.82c0,1.99-0.47,3.83-1.4,5.52c-0.93,1.69-2.19,3.14-3.77,4.36
			c-1.58,1.21-3.44,2.16-5.59,2.83c-2.14,0.67-4.43,1.01-6.86,1.01c-4.33,0-7.96-0.58-10.89-1.72s-5.41-2.7-7.44-4.65L296.13,92.72z
			"/>
		<path class="st2" d="M339.98,73.16h-13.33V63.08h38.16v10.08h-13.2v33.28h-11.64V73.16z"/>
		<path class="st2" d="M367.67,63.08h17.94c2.34,0,4.45,0.3,6.34,0.91c1.88,0.61,3.5,1.51,4.84,2.7c1.34,1.19,2.38,2.68,3.12,4.45
			c0.74,1.78,1.11,3.83,1.11,6.17c0,2.86-0.63,5.34-1.88,7.44c-1.26,2.1-2.93,3.78-5,5.04l9.29,16.64h-12.35l-7.34-14.75h-4.81
			v14.75h-11.24V63.08z M384.51,82.65c1.52,0,2.75-0.46,3.71-1.4c0.95-0.93,1.43-2.18,1.43-3.74c0-1.65-0.46-2.95-1.37-3.9
			c-0.91-0.95-2.19-1.43-3.83-1.43h-5.53v10.46H384.51z"/>
		<path class="st2" d="M405.87,63.08h11.5V88.5c0,2.38,0.55,4.33,1.66,5.85c1.1,1.52,2.93,2.27,5.49,2.27
			c2.56,0,4.38-0.77,5.46-2.31c1.08-1.54,1.62-3.48,1.62-5.82V63.08h11.63v26.46c0,2.77-0.46,5.28-1.36,7.51
			c-0.91,2.23-2.2,4.13-3.87,5.69c-1.67,1.56-3.64,2.75-5.92,3.58c-2.27,0.82-4.78,1.24-7.51,1.24c-2.73,0-5.24-0.41-7.54-1.24
			c-2.3-0.82-4.28-2-5.95-3.54c-1.67-1.54-2.96-3.42-3.87-5.65c-0.91-2.23-1.37-4.76-1.37-7.57V63.08z"/>
		<path class="st2" d="M489.29,98.38c-4.9,6.11-11.33,9.17-19.31,9.17c-3.34,0-6.39-0.56-9.17-1.69s-5.15-2.69-7.12-4.68
			c-1.97-1.99-3.51-4.38-4.62-7.15c-1.1-2.77-1.66-5.83-1.66-9.17c0-3.29,0.54-6.34,1.62-9.13c1.08-2.79,2.62-5.22,4.62-7.28
			c1.99-2.06,4.38-3.66,7.15-4.81c2.77-1.15,5.83-1.72,9.17-1.72c3.77,0,7.26,0.63,10.47,1.89c3.21,1.26,5.91,3.44,8.12,6.56
			l-7.61,7.67c-1.21-1.65-2.67-2.97-4.36-3.96c-1.69-1-3.62-1.5-5.78-1.5c-1.82,0-3.45,0.3-4.88,0.91
			c-1.43,0.61-2.63,1.45-3.61,2.54c-0.98,1.08-1.72,2.35-2.24,3.8c-0.52,1.45-0.78,3.02-0.78,4.71c0,1.73,0.27,3.34,0.81,4.81
			c0.54,1.47,1.31,2.75,2.31,3.83s2.2,1.93,3.61,2.54c1.41,0.61,2.98,0.91,4.71,0.91c2.51,0,4.56-0.44,6.14-1.33
			c1.58-0.89,3.13-2.29,4.65-4.19L489.29,98.38z"/>
		<path class="st2" d="M503.45,73.16h-13.33V63.08h38.16v10.08h-13.2v33.28h-11.63V73.16z"/>
	</g>
</g>
</svg>
