<?xml version="1.0" encoding="utf-8"?>
<!-- Generator: $$$/GeneralStr/196=Adobe Illustrator 27.6.0, SVG Export Plug-In . SVG Version: 6.00 Build 0)  -->
<svg version="1.1" id="Laag_1" xmlns="http://www.w3.org/2000/svg" xmlns:xlink="http://www.w3.org/1999/xlink" x="0px" y="0px"
	 viewBox="0 0 200 50.6" style="enable-background:new 0 0 200 50.6;" xml:space="preserve">
<style type="text/css">
	.st0{fill:#1D1D1B;}
	.st1{fill:none;stroke:#485F00;stroke-width:0.25;stroke-miterlimit:10;}
	.st2{fill:#AFCB37;}
	.st3{fill:none;stroke:#1D1D1B;stroke-width:0.25;stroke-miterlimit:10;}
	.st4{fill:#93C01F;}
	.st5{fill:#F8B133;}
	.st6{fill:none;stroke:#485F00;stroke-width:0.25;stroke-linecap:round;stroke-miterlimit:10;}
	.st7{fill:#469467;}
	.st8{fill:#E42528;}
	.st9{fill:#FFFFFF;}
	.st10{fill:#BDBDBD;}
	.st11{fill:#B1191D;}
	.st12{fill:#E73D4C;}
	.st13{fill:#ECECEC;}
	.st14{fill:#E6353D;}
	.st15{fill:#FFEDA1;}
	.st16{clip-path:url(#SVGID_00000013897682752689966730000018173327019345413554_);fill:#FCC224;}
	.st17{clip-path:url(#SVGID_00000013897682752689966730000018173327019345413554_);fill:#E9B421;}
	.st18{fill:#CE2420;}
	.st19{fill:#A31111;}
	.st20{fill:#FFB314;}
	.st21{fill:#F33B2F;}
	.st22{fill:#FDD301;}
	.st23{fill:#DD9517;}
</style>
<g>
	<path class="st0" d="M117,26.6"/>
	<path class="st1" d="M117.1,25.5c-0.2,0-0.3-2.4-0.1-2.4c0.1,0,0.4,0.7,0.4,1.4C117.4,24.9,117.2,25.5,117.1,25.5z"/>
	<path class="st2" d="M118.2,27.2c-0.1,0-0.2-0.1-0.3-0.1v-0.6h-0.3c0.2-0.1,0.3-0.3,0.3-0.5c0,0,0,0,0,0c0,0,0,0,0,0
		c0-0.4-0.3-0.6-0.7-0.6c-0.4,0-0.7,0.3-0.7,0.7c0,0.2,0.1,0.4,0.3,0.6h-0.3v0.6c-0.6,0.2-1.2,0.5-1.6,1c-0.8,1-0.9,2.4-0.3,3.5
		c0.7,1.1,1.9,1.6,3.2,1.4c1.5-0.3,2.5-1.6,2.5-3C120.2,28.8,119.4,27.7,118.2,27.2z M117.5,25.9c0,0.5-0.8,0.5-0.8,0
		C116.7,25.4,117.5,25.4,117.5,25.9z"/>
	<path class="st3" d="M117.1,25.3"/>
	<path class="st4" d="M117.1,27C117.1,27,117.1,27,117.1,27c0,0,0.1,0.1,0.2,0.1c0.8,0.5,1.6,1.5,1.7,2.6c0.1,1.3-0.6,2.7-1.9,3.4
		c0,0,0,0,0,0c1.7,0,3.1-1.4,3.1-3.1C120.2,28.4,118.8,27,117.1,27z"/>
	<path class="st4" d="M119,30.1"/>
	<path class="st5" d="M117.8,27.1v-0.6h-0.3c0.2-0.1,0.3-0.3,0.3-0.5c0,0,0,0,0,0c0,0,0,0,0,0c0-0.4-0.3-0.6-0.7-0.6
		c-0.4,0-0.7,0.3-0.7,0.7c0,0.2,0.1,0.4,0.3,0.6h-0.3v0.6C116.4,27.2,117.9,27.1,117.8,27.1z M116.7,25.9c0-0.5,0.8-0.5,0.8,0
		C117.5,26.5,116.7,26.5,116.7,25.9z"/>
	<path class="st6" d="M117.1,25.5c0.2-0.1,0.3-0.6,0.3-1.1c0-0.7-0.3-1.4-0.4-1.4"/>
</g>
<path class="st7" d="M23.5,31.5H6.6c0.7,2.7,2.8,4.2,5.8,4.2c2.3,0,4.5-1.1,5.9-2.7l3.7,3.7c-2.1,2.8-6,4.5-10,4.5
	c-6.9,0-12-4.9-12-11.8s5.5-11.9,11.9-11.9S23.6,22.1,23.6,29C23.7,29.8,23.6,30.5,23.5,31.5z M17.3,27.4c-0.2-2.6-2.4-4.3-5.2-4.3
	c-2.6,0-4.8,1.3-5.5,4.3L17.3,27.4L17.3,27.4z"/>
<path class="st7" d="M40.9,18.2h6.3v22.5h-6.3V37c-1,2.9-4.5,4.2-6.8,4.2c-5.9,0-9-4-8.9-10.7V18.2h6.3v12c0,3.5,2.1,5.2,4.3,5.2
	s5.1-1.2,5.1-5.3V18.2L40.9,18.2z"/>
<path class="st7" d="M67,18.4l-1.4,6c-1.3-0.7-2.5-0.8-3.2-0.8c-3.2,0-5.4,3-5.4,9.4v7.7h-6.3V18.2H57V23c1.2-3.8,3.8-5.4,6.6-5.4
	C64.7,17.7,66,17.9,67,18.4L67,18.4z"/>
<path class="st7" d="M65.8,29.5c0-7.1,5.7-11.9,12.1-11.9S90,22.4,90,29.5s-5.7,11.8-12.1,11.8S65.8,36.6,65.8,29.5z M83.6,29.5
	c0-3.5-2.6-6-5.7-6s-5.7,2.5-5.7,6s2.6,5.9,5.7,5.9S83.6,33,83.6,29.5z"/>
<g>
	<g>
		<g>
			<path class="st7" d="M95,30.4C94.8,30.3,94.8,30.3,95,30.4C95,30.3,95,30.3,95,30.4L95,30.4z"/>
			<path class="st7" d="M102.8,24.8c-1.2,0.1-2.1,1-2.2,2.2c0,0.1,0,0.2,0,0.3l0,0c0,0,0,0,0,0.1l0,0c-0.1,0.3-0.1,0.5-0.2,0.8v0.1
				l0,0v0.1l0,0c0,0.1-0.1,0.1-0.1,0.2c-0.1,0.2-0.3,0.5-0.4,0.7l0,0l0,0c0,0,0,0.1-0.1,0.1l-0.1,0.1c-0.1,0.2-0.3,0.3-0.5,0.5
				l-0.1,0.1c0,0,0,0,0.1-0.1c0,0-0.1,0-0.1,0.1c0.4-3.5,0.7-7,1.1-10.5c1.7-1.2,3.3-2.7,4.6-4.4c2.8-3.6,5.9-10,1.8-13.7
				c-2-1.8-4.8-1.7-6.8,0C97.5,3.2,97.2,6,97,8.6c-0.3,2.8-0.6,5.5-0.9,8.2c-1.3,0.7-2.8,1.2-4.2,1.6c-2.7,0.6-1.6,4.8,1.2,4.2
				c0.9-0.2,1.7-0.5,2.6-0.8c-0.2,1.9-0.4,3.7-0.6,5.6c-0.1,0.9-0.2,1.9-0.3,2.8c-0.2-0.1-0.3-0.1-0.3-0.2c0,0-0.1-0.1-0.2-0.1
				c0,0-0.1,0,0,0s0,0-0.1,0s-0.1-0.1-0.1-0.1c-0.8-0.8-2.2-0.9-3.1,0c-0.8,0.8-0.9,2.2,0,3.1c1,0.9,2.1,1.5,3.3,1.9
				c-0.5,4.6-1,9.2-1.5,13.9c-0.1,1.2,1.1,2.2,2.2,2.2c1.3,0,2-1,2.2-2.2c0.5-4.6,1-9.1,1.5-13.7c0.6-0.1,1.1-0.3,1.7-0.5
				c2.8-1.3,4.7-4.2,4.8-7.3C105,25.8,104,24.7,102.8,24.8L102.8,24.8z M101,11.5c0.2-1.9,0-4.9,1.2-6.6c1.3-1.8,2.2,0.7,2,1.9
				c-0.3,1.8-1.3,3.5-2.3,5c-0.3,0.5-0.7,0.9-1,1.3C100.8,12.6,100.9,12,101,11.5z M95,30.3L95,30.3C95,30.4,95,30.4,95,30.3
				C94.8,30.3,94.8,30.3,95,30.3z M97.2,30.7C97.2,30.7,97.2,30.6,97.2,30.7L97.2,30.7C97.3,30.6,97.2,30.7,97.2,30.7z M98.1,30.4
				L98.1,30.4C98.5,30.3,97.9,30.5,98.1,30.4z"/>
			<path class="st7" d="M97.2,30.7L97.2,30.7L97.2,30.7L97.2,30.7z"/>
			<path class="st7" d="M98.1,30.4L98.1,30.4C98.5,30.3,97.9,30.5,98.1,30.4z"/>
		</g>
		<g>
			<path class="st7" d="M97.2,30.7L97.2,30.7L97.2,30.7L97.2,30.7z"/>
			<path class="st7" d="M98.1,30.4L98.1,30.4C98.5,30.3,97.9,30.5,98.1,30.4z"/>
			<path class="st7" d="M99.1,29.8L99,29.9C99,29.9,99,29.9,99.1,29.8L99.1,29.8L99.1,29.8z"/>
			<path class="st7" d="M100.4,28.1C100.4,28.1,100.4,28.2,100.4,28.1L100.4,28.1C100.3,28.2,100.4,28.2,100.4,28.1L100.4,28.1
				L100.4,28.1z"/>
		</g>
	</g>
	<path class="st7" d="M122.5,18.4l-1.4,6c-1.3-0.7-2.5-0.8-3.2-0.8c-3.2,0-5.4,3-5.4,9.4v7.7h-6.3V18.2h6.3V23
		c1.2-3.8,3.8-5.4,6.6-5.4C120.1,17.7,121.5,17.9,122.5,18.4L122.5,18.4z"/>
	<path class="st7" d="M144.8,31.5h-16.9c0.7,2.7,2.8,4.2,5.8,4.2c2.3,0,4.5-1.1,5.9-2.7l3.7,3.7c-2.1,2.8-6,4.5-10,4.5
		c-6.9,0-12-4.9-12-11.8s5.5-11.9,11.9-11.9s11.7,4.6,11.7,11.5C145,29.8,144.9,30.5,144.8,31.5z M138.6,27.4
		c-0.2-2.6-2.4-4.3-5.2-4.3c-2.6,0-4.8,1.3-5.5,4.3L138.6,27.4L138.6,27.4z"/>
	<path class="st7" d="M145.4,33.7h5.9c0,1.3,1.1,2.7,3.3,2.7c1.8,0,3.2-0.9,3.2-2.2c0-1-0.8-1.5-2.5-1.9l-3-0.7
		c-5.8-1.5-6.6-4.8-6.6-7.1c0-3.5,3.6-6.7,8.8-6.7c4.1,0,8.9,2,8.9,7.3h-6c0-1.5-1.2-2.4-2.8-2.4s-2.6,0.8-2.6,2
		c0,1.1,1,1.6,2.2,1.9l3.7,1c5.4,1.5,6.1,4.8,6.1,6.6c0,4.7-4.8,7.2-9.4,7.2S145.4,38.6,145.4,33.7L145.4,33.7z"/>
	<path class="st7" d="M188.3,28.4v12.3H182v-12c0-3.5-2.1-5.2-4.3-5.2s-5.1,1.2-5.1,5.3v11.8h-6.3V6h6.3v15.8c1-2.9,4.6-4.1,6.8-4.1
		C185.2,17.7,188.3,21.7,188.3,28.4L188.3,28.4z"/>
</g>
<g>
	<path class="st8" d="M163.4,12.8c0,0.1,0,0.1,0,0.2l-2.9,0.1c0.5,0.9,0.9,2.1,1.1,3.7l-3.4-0.6c-2.6-0.4-5.2-0.4-7.8,0l-3.3,0.6
		c-0.1,0-0.2,0-0.3,0.1c0.1-2,0.7-9.8,6.8-9.8c6.5,0,10.1,3.9,10.5,4.5C163.7,11.7,163.4,12.2,163.4,12.8"/>
	<path class="st9" d="M166.8,12.8c0,0.9-0.8,1.7-1.7,1.7c-0.9,0-1.6-0.7-1.7-1.5c0-0.1,0-0.1,0-0.2c0-0.6,0.3-1,0.7-1.4
		c0.3-0.2,0.6-0.3,1-0.3C166.1,11.1,166.8,11.9,166.8,12.8"/>
	<path class="st9" d="M163.7,18.6c0,0.5-0.3,1-0.7,1.3c-0.4,0.4-1,0.6-1.7,0.7l-5,0.4c-1.4,0.1-2.8,0.1-4.2,0l-4.8-0.4
		c-1.4-0.1-2.4-1-2.4-2v0c0-0.8,0.7-1.6,1.8-1.9c0.1,0,0.2,0,0.3-0.1l3.3-0.6c2.6-0.4,5.2-0.5,7.8,0l3.4,0.6l0.1,0
		C162.9,16.9,163.7,17.7,163.7,18.6"/>
	<path class="st10" d="M163.7,18.6c0,0.5-0.3,1-0.7,1.3C163.5,19.6,163.7,19.1,163.7,18.6 M161.5,16.4c0,0.1,0,0.2,0,0.3l0,0l0.1,0
		c1.2,0.2,2.1,1,2.1,1.9l0,0c0-0.9-0.9-1.7-2.1-1.9l-0.1,0C161.6,16.6,161.6,16.5,161.5,16.4"/>
	<path class="st11" d="M161.9,12.9l-1.3,0c-0.8,0-1.3,0.8-1.1,1.5c0.2,0.6,0.3,1.2,0.4,2l1.6,0.3c0-0.1,0-0.2,0-0.3
		c-0.2-1.4-0.6-2.5-1-3.4L161.9,12.9L161.9,12.9"/>
	<path class="st10" d="M160,16.4c0,0.1,0,0.2,0,0.3l0.1,0c1.2,0.2,2.1,1,2.1,1.9c0,0.5-0.3,1-0.7,1.3c-0.4,0.4-1,0.6-1.7,0.7l-5,0.4
		c-0.2,0-0.4,0-0.5,0c0.3,0,0.5,0,0.8,0c-0.2,0-0.4,0-0.6,0c0.6,0,1.3,0,1.9-0.1l5-0.4c0.7-0.1,1.3-0.3,1.7-0.7c0,0,0,0,0,0
		c0.4-0.4,0.7-0.8,0.7-1.3l0,0c0-0.9-0.9-1.7-2.1-1.9l-0.1,0L160,16.4"/>
	<path class="st10" d="M165.1,14.5C165.1,14.5,165.1,14.5,165.1,14.5C165.1,14.5,165.1,14.5,165.1,14.5 M165.1,11.1
		C165.1,11.1,165.1,11.1,165.1,11.1C165.1,11.1,165.1,11.1,165.1,11.1 M165.1,11.1C165.1,11.1,165.1,11.1,165.1,11.1
		C165.1,11.1,165.1,11.1,165.1,11.1"/>
	<path class="st10" d="M165.1,11.1L165.1,11.1C165.1,11.1,165.1,11.1,165.1,11.1C165.1,11.1,165.1,11.1,165.1,11.1
		C165.1,11.1,165.1,11.1,165.1,11.1C165.1,11.1,165.1,11.1,165.1,11.1c-0.3,0-0.6,0.1-0.8,0.2c0.5,0.3,0.9,0.8,0.9,1.5
		c0,0.7-0.4,1.2-0.9,1.5c0.2,0.1,0.5,0.2,0.8,0.2c0,0,0,0,0,0c0,0,0,0,0,0c0.9,0,1.7-0.8,1.7-1.7C166.8,11.9,166.1,11.1,165.1,11.1"
		/>
	<path class="st10" d="M162.5,9.9C162.5,9.9,162.5,9.9,162.5,9.9C162.5,9.9,162.5,9.9,162.5,9.9 M153.9,7c4.1,0.1,6.9,1.7,8.6,3
		C160.9,8.7,158,7.1,153.9,7 M153.9,7C153.9,7,153.9,7,153.9,7C153.9,7,153.9,7,153.9,7 M153.8,7C153.9,7,153.9,7,153.8,7
		C153.9,7,153.8,7,153.8,7 M153.8,7C153.8,7,153.8,7,153.8,7C153.8,7,153.8,7,153.8,7 M153.8,7C153.8,7,153.8,7,153.8,7
		C153.8,7,153.8,7,153.8,7 M153.8,7C153.8,7,153.8,7,153.8,7C153.8,7,153.8,7,153.8,7 M153.8,7C153.8,7,153.8,7,153.8,7
		C153.8,7,153.8,7,153.8,7 M153.7,7C153.7,7,153.7,7,153.7,7C153.7,7,153.7,7,153.7,7 M153.7,7C153.7,7,153.7,7,153.7,7
		C153.7,7,153.7,7,153.7,7 M153.7,7C153.7,7,153.7,7,153.7,7C153.7,7,153.7,7,153.7,7 M153.7,7C153.7,7,153.7,7,153.7,7
		C153.7,7,153.7,7,153.7,7 M153.6,7C153.6,7,153.6,7,153.6,7C153.6,7,153.6,7,153.6,7 M153.6,7C153.6,7,153.6,7,153.6,7
		C153.6,7,153.6,7,153.6,7 M153.6,7C153.6,7,153.6,7,153.6,7C153.6,7,153.6,7,153.6,7 M153.6,7C153.6,7,153.6,7,153.6,7
		C153.6,7,153.6,7,153.6,7 M153.6,7C153.6,7,153.6,7,153.6,7C153.6,7,153.6,7,153.6,7C153.6,7,153.6,7,153.6,7"/>
	<path class="st11" d="M153.6,7c0.3,0,0.6,0,0.9,0c-0.2,0-0.5,0.1-0.7,0.1c1.5,0.2,3.7,0.7,6,2.1c1.7,1,2.9,2.1,3.7,3
		c0.1-0.3,0.3-0.5,0.5-0.7c-0.2-0.2-0.5-0.4-0.5-0.4c0,0,0,0,0,0c0,0,0.1,0,0.2,0c-0.3-0.3-0.7-0.7-1.3-1.2c0,0,0,0,0,0c0,0,0,0,0,0
		c-1.6-1.3-4.5-2.9-8.6-3c0,0,0,0,0,0c0,0,0,0,0,0c0,0,0,0,0,0c0,0,0,0-0.1,0c0,0,0,0,0,0c0,0,0,0,0,0c0,0,0,0,0,0c0,0,0,0,0,0
		c0,0,0,0,0,0c0,0,0,0,0,0c0,0,0,0,0,0c0,0,0,0,0,0c0,0,0,0,0,0c0,0,0,0,0,0c0,0,0,0,0,0c0,0,0,0,0,0c0,0,0,0,0,0c0,0,0,0,0,0
		C153.7,7,153.7,7,153.6,7C153.7,7,153.7,7,153.6,7C153.7,7,153.7,7,153.6,7C153.6,7,153.6,7,153.6,7C153.6,7,153.6,7,153.6,7
		C153.6,7,153.6,7,153.6,7C153.6,7,153.6,7,153.6,7C153.6,7,153.6,7,153.6,7C153.6,7,153.6,7,153.6,7C153.6,7,153.6,7,153.6,7
		C153.6,7,153.6,7,153.6,7C153.6,7,153.6,7,153.6,7"/>
	<path class="st10" d="M164,11.5c-0.2,0.2-0.4,0.4-0.5,0.7c0,0,0,0,0,0c0.5-0.5,0.6-0.6,0.6-0.6c0.1,0.1,0.2,0.1,0.2,0.1
		C164.3,11.7,164.2,11.6,164,11.5"/>
	<path class="st12" d="M153.6,7c-6.2,0-6.8,7.8-6.8,9.8c0.1,0,0.2,0,0.3-0.1l1.3-0.2c0.1-2.2,0.8-8.4,5.6-9.4
		c-0.3,0-0.6-0.1-0.9-0.1C153.1,7,153.3,7,153.6,7"/>
	<path class="st13" d="M148.3,16.5l-1.3,0.2c-0.1,0-0.2,0-0.3,0.1l0,0c0,0,0,0,0,0c-1.1,0.3-1.8,1-1.8,1.9v0c0,1,1,1.9,2.4,2
		l4.8,0.4c0.7,0.1,1.4,0.1,2.1,0.1c0.1,0,0.1,0,0.2,0c0,0-0.1,0-0.1,0c-0.3,0-0.5,0-0.8,0c0.3,0,0.5,0,0.8,0c-0.2,0-0.4,0-0.6,0
		l-4.8-0.4c-1.4-0.1-2.4-1-2.4-2v0c0-0.8,0.7-1.6,1.8-1.9C148.3,16.7,148.3,16.6,148.3,16.5"/>
	<path class="st10" d="M153.6,7L153.6,7L153.6,7C153.6,7,153.6,7,153.6,7C153.6,7,153.6,7,153.6,7L153.6,7"/>
	<path class="st14" d="M153.6,7L153.6,7c-0.2,0-0.4,0-0.6,0c0.3,0,0.6,0.1,0.9,0.1c0.2,0,0.4-0.1,0.7-0.1C154.2,7,153.9,7,153.6,7
		C153.6,7,153.6,7,153.6,7"/>
</g>
<g>
	<path class="st15" d="M65.8,29.5c0,0.4,0,0.8,0.1,1.2h24.1c0-0.4,0.1-0.8,0.1-1.2c0-0.2,0-0.3,0-0.5H65.8
		C65.8,29.2,65.8,29.3,65.8,29.5z"/>
	<g>
		<defs>
			<rect id="SVGID_1_" x="67.8" y="21.6" width="20.2" height="15"/>
		</defs>
		<clipPath id="SVGID_00000174567963811842010790000010232260175049470645_">
			<use xlink:href="#SVGID_1_"  style="overflow:visible;"/>
		</clipPath>
		<path style="clip-path:url(#SVGID_00000174567963811842010790000010232260175049470645_);fill:#FCC224;" d="M78.4,29.8
			c0.5-3.5,1.7-4.7,2.6-5.1c0.1,0,0.2-0.1,0.3-0.1c0.2-0.1,0.5-0.1,0.8,0c0.1,0,0.2,0,0.2,0.1c0.7,0.3,1,1.2,0.8,2
			c0,0.1,0,0.1,0,0.2C82.4,29,78.4,29.8,78.4,29.8 M77.9,30.4c0,0,6.8-1.1,7.8-4.7c0-0.1,0-0.2,0.1-0.3c0.3-1.3-0.2-2.9-1.5-3.5
			c-0.1-0.1-0.3-0.1-0.4-0.1c-0.4-0.1-0.9-0.1-1.3,0c-0.2,0-0.3,0.1-0.5,0.1C80.5,22.5,78.7,24.5,77.9,30.4"/>
		<path style="clip-path:url(#SVGID_00000174567963811842010790000010232260175049470645_);fill:#FCC224;" d="M71.3,34.4
			c-0.6-0.6-1.3-0.6-1.9-1.1c0.4-0.3,1.7-0.8,1.8-0.8c1.3-0.6,2.7-1.3,2.7-1.3l4.5-2.1L75,32.9c0,0-0.8,0.9-1.7,1.9
			c-0.1,0.1-0.1,0.1-0.2,0.2c-0.3,0.3-0.6,0.6-0.8,0.9c-0.1,0.1-0.5,0.5-0.7,0.7c-0.2-0.7,0.1-1.4-0.3-2.1
			C71.3,34.5,71.3,34.4,71.3,34.4"/>
		<path style="clip-path:url(#SVGID_00000174567963811842010790000010232260175049470645_);fill:#FCC224;" d="M79.1,29.8
			c0,0.6-0.6,1.1-1.3,1.1c-0.7,0-1.3-0.5-1.3-1.1c0-0.6,0.6-1.1,1.3-1.1C78.5,28.8,79.1,29.2,79.1,29.8"/>
		<path style="clip-path:url(#SVGID_00000174567963811842010790000010232260175049470645_);fill:#FCC224;" d="M85.1,34.2
			c0.5-0.6,1.3-0.7,1.8-1.2c-0.4-0.2-1.7-0.6-1.8-0.7c-1.3-0.5-2.8-1-2.8-1l-4.7-1.7l3.7,3.4c0,0,0.9,0.9,1.8,1.7
			c0.1,0.1,0.1,0.1,0.2,0.2c0.3,0.3,0.6,0.6,0.9,0.8c0.1,0.1,0.5,0.5,0.7,0.7c0.2-0.7-0.2-1.4,0.1-2.1
			C85.1,34.2,85.1,34.2,85.1,34.2"/>
		<path style="clip-path:url(#SVGID_00000174567963811842010790000010232260175049470645_);fill:#E9B421;" d="M84.3,22
			c-0.1-0.1-0.3-0.1-0.4-0.1c-0.4-0.1-0.9-0.1-1.3,0c-0.2,0-0.3,0.1-0.5,0.1C82,22,82,22,81.9,22c1.1,0.1,2.2,0.7,2.8,1.8
			c0.4,0.7,0.7,1.5,0.9,2.3c0.1-0.1,0.1-0.3,0.2-0.5c0-0.1,0-0.2,0.1-0.3C86,24.1,85.5,22.5,84.3,22z"/>
		<path style="clip-path:url(#SVGID_00000174567963811842010790000010232260175049470645_);fill:#FCC224;" d="M77.7,29.7
			c-0.5-3.5-1.7-4.7-2.6-5.1c-0.1,0-0.2-0.1-0.3-0.1c-0.2-0.1-0.5-0.1-0.8,0c-0.1,0-0.2,0-0.2,0.1c-0.7,0.3-1,1.2-0.8,2
			c0,0.1,0,0.1,0,0.2C73.7,28.9,77.7,29.7,77.7,29.7 M78.2,30.3c0,0-6.8-1.1-7.8-4.7c0-0.1,0-0.2-0.1-0.3c-0.3-1.3,0.2-2.9,1.5-3.5
			c0.1-0.1,0.3-0.1,0.4-0.1c0.4-0.1,0.9-0.1,1.3,0c0.2,0,0.3,0.1,0.5,0.1C75.6,22.4,77.4,24.4,78.2,30.3"/>
		<path style="clip-path:url(#SVGID_00000174567963811842010790000010232260175049470645_);fill:#E9B421;" d="M71.8,21.9
			c0.1-0.1,0.3-0.1,0.4-0.1c0.4-0.1,0.9-0.1,1.3,0c0.2,0,0.3,0.1,0.5,0.1c0.1,0,0.2,0.1,0.2,0.1c-1.1,0.1-2.2,0.7-2.8,1.8
			c-0.4,0.7-0.7,1.5-0.9,2.3c-0.1-0.1-0.1-0.3-0.2-0.5c0-0.1,0-0.2-0.1-0.3C70.1,24,70.6,22.5,71.8,21.9z"/>
	</g>
</g>
<g>
	<rect x="191" y="33" class="st18" width="8.4" height="7.7"/>
	<rect x="191" y="33" class="st19" width="8.4" height="0.6"/>
	<g>
		<path class="st20" d="M192.5,31.4c0.5,0.3,2.4,0.8,2.7,0.5c0.2-0.2-0.9-1.3-1.4-1.6c-0.5-0.3-1.2-0.3-1.5,0
			C191.9,30.6,192,31.1,192.5,31.4z M193.3,31.3c-0.4-0.2-0.4-0.4-0.3-0.5c0.1-0.1,0.4-0.1,0.8,0.1c0.5,0.4,1.2,0.9,1.2,0.9
			S193.7,31.4,193.3,31.3z"/>
	</g>
	<g>
		<path class="st20" d="M198.1,30.3c-0.3-0.3-1-0.3-1.5,0c-0.5,0.3-1.6,1.4-1.4,1.6c0.3,0.3,2.2-0.2,2.7-0.5
			C198.3,31.1,198.4,30.6,198.1,30.3z M195.4,31.8c0,0,0.7-0.6,1.2-0.9c0.3-0.2,0.6-0.3,0.8-0.1c0.1,0.1,0,0.4-0.3,0.5
			C196.7,31.4,195.4,31.8,195.4,31.8z"/>
	</g>
	<rect x="190.4" y="31.9" class="st21" width="9.6" height="1.5"/>
	<rect x="194.6" y="31.9" class="st20" width="1.1" height="8.8"/>
	
		<rect x="194.7" y="32.5" transform="matrix(-1.836970e-16 1 -1 -1.836970e-16 231.9044 -158.4609)" class="st22" width="1" height="8.4"/>
	<rect x="194.6" y="33.3" class="st23" width="1.1" height="0.3"/>
	<rect x="194.6" y="37.2" class="st23" width="1.1" height="0.3"/>
	<path class="st22" d="M195.2,31.8c-0.2,0.1-1.4,1.1-1.3,2.4l-0.6-0.5l-0.7,0.4c0.1-0.3,0.1-0.7,0.3-1c0.2-0.4,0.5-0.7,0.9-1
		C194.1,31.9,194.8,31.7,195.2,31.8z"/>
	<path class="st22" d="M195.1,31.8c0.2,0.1,1.3,1.1,1.3,2.4l0.6-0.5l0.7,0.4c-0.1-0.3-0.1-0.7-0.3-1c-0.2-0.4-0.5-0.7-0.9-1
		C196.3,31.9,195.5,31.7,195.1,31.8z"/>
</g>
</svg>
